<?xml version="1.0"?><svg width="640" height="480" xmlns="http://www.w3.org/2000/svg">
 <title>blue shopping bag</title>
 <metadata id="metadata4066">image/svg+xmlGreen bag for shopping. Bolsa verde de compras.20 de septiembre del 2011Alex PuenteAlex PuenteAlex Puentees-MXshoppingmallbaggreencomprastiendasbolsaverdeGreen bag for shopping. Bolsa verde de compras.Alex Puente</metadata>
 <g>
  <title>Layer 1</title>
  <path fill="none" stroke="#666666" stroke-width="4.872161" stroke-linecap="round" stroke-miterlimit="4" id="path3858" d="m260.871338,160.287033c-25.607483,-116.372726 92.13739,-132.679688 64.135437,-11.590729"/>
  <path fill="#4a99a5" stroke="#d38d5f" stroke-width="0" stroke-miterlimit="4" d="m120.124847,124.588074c0,0 134.006012,0.834 187.401031,-4.585007c53.394958,-5.418991 132.96698,-27.927994 132.96698,-27.927994l-0.476013,9.356995l35.367004,0.158997l-159.575989,41.041l-190.036011,8.621002l-5.647003,-26.664993z" id="rect3832"/>
  <path fill="#93cdd6" d="m160.961853,131.668076l0.330017,9.681l-5.337006,-0.145004l5.006989,-9.535995z" id="path3188"/>
  <path fill="#3e8893" d="m120.124817,124.590302l40.867218,7.113403l-4.901093,9.286865l16.85199,114.760513l-6.857574,122.626144c6.371887,5.801544 -12.193756,8.623779 -16.40802,12.308105l-30.677338,8.94693c14.325897,-29.911591 11.371765,-82.38504 11.295837,-125.665527c0,-31.604752 -10.171021,-149.376434 -10.171021,-149.376434z" id="rect3776"/>
  <path fill="#489fad" d="m156.183868,420.949097l-18.822998,-10.252991l-18.158997,-11.083008l31.061981,-9.936035l14.166992,-10.007965l-1.509003,22.461975l-6.737976,18.818024z" id="path3774"/>
  <path fill="#3e9aa8" d="m440.037842,101.410065l-0.303955,9.124008l36.371948,-9.514008l-36.067993,0.389999z" id="path3150"/>
  <path fill="#82bbc4" d="m156.069061,141.000015c0,0 102.466278,1.860626 155.799591,-4.806046c53.333313,-6.666656 164.200378,-35.193954 164.200378,-35.193954c0,0 -9.057312,86.626373 -10.385315,129.024933c-1.328064,42.398514 2.417053,125.366348 2.417053,125.366348l7.968262,25.608734l-319.999969,40.000031l6.640228,-19.127258c0,0 6.137665,-75.16864 5.030975,-118.6474c-1.10672,-43.478806 -11.671204,-142.225388 -11.671204,-142.225388z" id="rect2985"/>
  <path fill="none" stroke="#666666" stroke-width="5" stroke-linecap="round" stroke-miterlimit="4" d="m279.55542,159.142776c-26.279388,-119.426193 94.554932,-136.161026 65.818237,-11.894852" id="path3853"/>
 </g>
</svg>